<?xml version="1.0" encoding="UTF-8"?><svg id="Layer_2" xmlns="http://www.w3.org/2000/svg" viewBox="0 0 1357.81 398.76"><defs><style>.cls-1{fill:#f4b184;}</style></defs><g id="Layer_1-2"><g><g><path class="cls-1" d="M650.64,309.07h-37.4v51.64h-10.28V222.21h50.25c30.47,0,51.45,15.64,51.45,42.35v.39c0,29.09-25.13,44.12-54.01,44.12Zm43.73-43.92c0-21.96-17.02-33.44-41.95-33.44h-39.18v67.87h37.99c25.72,0,43.13-13.45,43.13-34.03v-.39Z"/><path class="cls-1" d="M770.35,363.08c-29.88,0-51.64-24.15-51.64-52.43v-.39c0-28.3,21.96-52.83,52.04-52.83s51.64,24.15,51.64,52.43v.39c0,28.29-21.96,52.83-52.04,52.83Zm41.54-52.83c0-24.34-18.2-43.73-41.54-43.73s-41.15,19.58-41.15,43.33v.39c0,24.34,18.2,43.73,41.54,43.73s41.15-19.58,41.15-43.33v-.39Z"/><path class="cls-1" d="M899.36,268.91c-23.34,0-43.73,17.61-43.73,50.44v41.34h-9.69v-100.91h9.69v28.7c7.92-18,24.74-31.06,44.71-30.27v10.68h-.99v.02Z"/><path class="cls-1" d="M952.38,362.49c-15.64,0-28.29-8.51-28.29-27.69v-66.08h-14.64v-8.9h14.64v-32.24h9.69v32.24h35.41v8.9h-35.41v65.1c0,14.44,8.51,19.6,20.19,19.6,4.94,0,9.1-.99,14.83-3.56v9.1c-5.14,2.38-10.09,3.56-16.43,3.56v-.02Z"/><path class="cls-1" d="M1027.57,224.59c-13.85,0-20.38,8.31-20.38,25.53v9.69h35.22v8.9h-35.22v92h-9.69v-92h-14.64v-8.9h14.64v-9.89c0-21.76,11.09-34.23,30.08-34.23,6.13,0,10.48,.79,15.03,2.38v9.1c-5.73-1.77-9.89-2.58-15.03-2.58h0Z"/><path class="cls-1" d="M1099.6,363.08c-29.88,0-51.64-24.15-51.64-52.43v-.39c0-28.3,21.96-52.83,52.04-52.83s51.64,24.15,51.64,52.43v.39c0,28.29-21.96,52.83-52.04,52.83Zm41.54-52.83c0-24.34-18.2-43.73-41.54-43.73s-41.15,19.58-41.15,43.33v.39c0,24.34,18.2,43.73,41.54,43.73s41.15-19.58,41.15-43.33v-.39Z"/><path class="cls-1" d="M1176.57,360.72V216.28h9.69v144.43h-9.69Z"/><path class="cls-1" d="M1218.32,233.5v-13.26h12.07v13.26h-12.07Zm1.18,127.22v-100.91h9.69v100.91h-9.69Z"/><path class="cls-1" d="M1305.78,363.08c-29.88,0-51.64-24.15-51.64-52.43v-.39c0-28.3,21.96-52.83,52.04-52.83s51.64,24.15,51.64,52.43v.39c0,28.29-21.96,52.83-52.04,52.83Zm41.54-52.83c0-24.34-18.2-43.73-41.54-43.73s-41.15,19.58-41.15,43.33v.39c0,24.34,18.2,43.73,41.54,43.73s41.15-19.58,41.15-43.33v-.39Z"/></g><g><path class="cls-1" d="M731.96,130.77c-3.43,8.64-8.25,16.26-14.44,22.85-6.21,6.6-13.65,11.84-22.36,15.74-8.71,3.89-18.33,5.83-28.89,5.83s-20.15-1.92-28.79-5.73c-8.64-3.83-16.06-9-22.26-15.54-6.21-6.54-10.99-14.11-14.34-22.75-3.37-8.64-5.04-17.77-5.04-27.4s1.71-18.76,5.14-27.4,8.25-16.26,14.44-22.85c6.19-6.59,13.65-11.84,22.36-15.74s18.33-5.83,28.89-5.83,20.15,1.92,28.79,5.73c8.64,3.83,16.06,9,22.26,15.54s10.99,14.11,14.34,22.75c3.37,8.64,5.04,17.77,5.04,27.4s-1.71,18.76-5.14,27.4h0Zm-15.13-49.36c-2.71-7-6.5-13.06-11.38-18.2-4.88-5.14-10.66-9.23-17.31-12.27-6.67-3.04-13.95-4.55-21.86-4.55s-15.21,1.48-21.86,4.45c-6.67,2.97-12.37,7.03-17.12,12.17s-8.48,11.19-11.19,18.1c-2.71,6.93-4.06,14.34-4.06,22.26s1.35,15.37,4.06,22.36c2.71,7,6.49,13.06,11.38,18.2,4.88,5.14,10.64,9.23,17.31,12.27,6.65,3.04,13.95,4.55,21.86,4.55s15.19-1.48,21.86-4.45c6.65-2.97,12.37-7.03,17.12-12.17,4.75-5.14,8.48-11.19,11.19-18.1,2.71-6.93,4.06-14.34,4.06-22.26s-1.35-15.36-4.06-22.36Z"/><path class="cls-1" d="M816.84,70.91v13.06h-32.24v88.85h-15.24V83.97h-14.04v-13.26h14.04v-8.9c0-11.2,2.68-19.71,8.02-25.53,5.34-5.8,12.96-8.71,22.85-8.71,3.56,0,6.64,.2,9.2,.59,2.58,.39,5.11,1.05,7.62,1.97v13.26c-2.78-.79-5.27-1.41-7.52-1.87-2.25-.46-4.68-.69-7.33-.69-11.88,0-17.81,7.26-17.81,21.76v8.31h32.46Z"/><path class="cls-1" d="M885.5,70.91v13.06h-32.24v88.85h-15.24V83.97h-14.04v-13.26h14.04v-8.9c0-11.2,2.68-19.71,8.02-25.53,5.34-5.8,12.96-8.71,22.85-8.71,3.56,0,6.64,.2,9.2,.59,2.58,.39,5.11,1.05,7.62,1.97v13.26c-2.78-.79-5.27-1.41-7.52-1.87-2.25-.46-4.68-.69-7.33-.69-11.88,0-17.81,7.26-17.81,21.76v8.31h32.46Z"/><path class="cls-1" d="M901.33,48.14V31.32h17.41v16.82h-17.41Zm.99,124.66V70.52h15.23v102.3h-15.23v-.02Z"/><path class="cls-1" d="M1019.35,169.57c-6.54,3.75-14.62,5.62-24.24,5.62-7.52,0-14.47-1.41-20.88-4.25-6.41-2.84-11.94-6.65-16.62-11.48-4.68-4.81-8.34-10.45-10.99-16.92-2.64-6.46-3.96-13.32-3.96-20.58s1.31-14.14,3.96-20.68,6.29-12.24,10.99-17.12c4.68-4.88,10.22-8.74,16.62-11.58,6.39-2.84,13.35-4.25,20.88-4.25,4.88,0,9.3,.46,13.26,1.38,3.96,.92,7.59,2.22,10.87,3.86,3.3,1.66,6.32,3.6,9.1,5.83,2.78,2.25,5.34,4.62,7.72,7.13l-10.09,10.68c-4.09-4.22-8.54-7.85-13.35-10.89-4.81-3.04-10.73-4.55-17.71-4.55-5.14,0-9.95,1.02-14.44,3.06s-8.38,4.86-11.68,8.49c-3.3,3.61-5.86,7.84-7.72,12.63-1.84,4.8-2.78,9.97-2.78,15.49s.95,10.73,2.87,15.59c1.91,4.86,4.55,9.12,7.92,12.73s7.33,6.44,11.88,8.49,9.53,3.06,14.93,3.06c6.59,0,12.43-1.45,17.51-4.35,5.08-2.91,9.66-6.54,13.75-10.87l9.69,9.1c-5.14,5.83-10.99,10.61-17.51,14.36l.02,.05Z"/><path class="cls-1" d="M1068.32,142.04c2.1,4.29,4.81,7.92,8.11,10.89s7,5.21,11.09,6.73c4.09,1.51,8.38,2.28,12.86,2.28,7.13,0,13.22-1.31,18.3-3.96s9.72-6.13,13.95-10.48l9.49,8.51c-5.14,5.8-11.02,10.46-17.61,13.95-6.6,3.5-14.78,5.24-24.54,5.24-7,0-13.58-1.28-19.79-3.86-6.21-2.58-11.63-6.19-16.28-10.89-4.65-4.68-8.34-10.32-11.09-16.92-2.74-6.6-4.11-13.85-4.11-21.76,0-7.39,1.22-14.34,3.66-20.88,2.45-6.54,5.83-12.2,10.18-17.02,4.35-4.81,9.53-8.61,15.54-11.38,6-2.78,12.57-4.16,19.69-4.16,7.52,0,14.24,1.41,20.19,4.25,5.93,2.84,10.96,6.7,15.05,11.58,4.09,4.88,7.19,10.63,9.3,17.21,2.1,6.6,3.17,13.65,3.17,21.17v2.18c0,.79-.07,1.64-.2,2.58h-80.93c.53,5.54,1.84,10.46,3.96,14.73v-.02Zm61.53-26.02c-.39-4.62-1.35-9.03-2.86-13.26s-3.6-7.92-6.29-11.09-5.96-5.7-9.84-7.62c-3.88-1.91-8.36-2.87-13.47-2.87-4.45,0-8.59,.89-12.39,2.68-3.79,1.77-7.15,4.22-10.04,7.33s-5.24,6.77-7.08,10.99-3.02,8.84-3.53,13.85h65.49Z"/></g><g><path class="cls-1" d="M138.19,27.83c-62.6,0-113.36,50.74-113.37,113.34,0,62.6,50.74,113.36,113.34,113.37s113.36-50.74,113.37-113.34v-.03c-.08-62.57-50.77-113.26-113.34-113.34Zm0,216.68c-57.08,0-103.35-46.26-103.35-103.32S81.08,37.85,138.16,37.83c57.08,0,103.35,46.26,103.35,103.32h0c-.07,57.06-46.27,103.29-103.32,103.35Z"/><path class="cls-1" d="M338.43,0h-96.91V49.28C190.71-7.74,103.29-12.76,46.27,38.04-10.73,88.85-15.77,176.27,35.05,233.28c50.81,57.02,138.23,62.04,195.24,11.24,29.48-26.27,46.32-63.9,46.27-103.39h0V35.02h61.83c57.08,0,103.34,46.27,103.34,103.34s-46.27,103.34-103.34,103.34h-96.83v120.68l10.02,10.38v-121.04h86.86c62.6,.79,113.98-49.33,114.77-111.93s-49.33-113.98-111.93-114.77h-74.71v116.15h0c.1,70.94-57.34,128.53-128.29,128.63-70.94,.1-128.53-57.34-128.63-128.29C9.53,70.57,66.97,12.98,137.91,12.88c47.59-.07,91.31,26.18,113.64,68.22V10.02h86.89c70.9-.84,129.04,55.96,129.86,126.86,.84,70.9-55.96,129.04-126.86,129.86h-74.87v121.64l10.02,10.38v-122.01h61.83c76.43,0,138.39-61.94,138.39-138.37S414.86,0,338.43,0h0Z"/></g></g></g></svg>