<?xml version="1.0" encoding="UTF-8"?><svg id="Layer_2" xmlns="http://www.w3.org/2000/svg" viewBox="0 0 557.95 348.73"><defs><style>.cls-1{fill:#f4b184;}</style></defs><g id="Layer_1-2"><g><g><g><path class="cls-1" d="M261.31,326.07h-15.69v21.66h-4.32v-58.09h21.08c12.78,0,21.58,6.56,21.58,17.76v.17c0,12.2-10.54,18.51-22.66,18.51Zm18.34-18.42c0-9.21-7.14-14.03-17.59-14.03h-16.43v28.47h15.93c10.79,0,18.09-5.64,18.09-14.27v-.17Z"/><path class="cls-1" d="M311.53,348.73c-12.53,0-21.66-10.12-21.66-21.99v-.17c0-11.87,9.21-22.16,21.83-22.16s21.66,10.12,21.66,21.99v.17c0,11.87-9.21,22.16-21.83,22.16Zm17.43-22.16c0-10.21-7.64-18.34-17.43-18.34s-17.26,8.22-17.26,18.18v.17c0,10.21,7.63,18.34,17.43,18.34s17.26-8.22,17.26-18.18v-.17Z"/><path class="cls-1" d="M365.64,309.22c-9.79,0-18.34,7.39-18.34,21.16v17.35h-4.07v-42.33h4.07v12.03c3.32-7.55,10.38-13.03,18.76-12.7v4.48h-.41Z"/><path class="cls-1" d="M387.89,348.48c-6.56,0-11.87-3.57-11.87-11.62v-27.72h-6.14v-3.73h6.14v-13.53h4.07v13.53h14.86v3.73h-14.86v27.3c0,6.06,3.57,8.22,8.47,8.22,2.07,0,3.82-.42,6.22-1.49v3.82c-2.16,1-4.23,1.49-6.89,1.49Z"/><path class="cls-1" d="M419.43,290.63c-5.81,0-8.55,3.49-8.55,10.71v4.07h14.77v3.73h-14.77v38.59h-4.07v-38.59h-6.14v-3.73h6.14v-4.15c0-9.13,4.65-14.36,12.62-14.36,2.57,0,4.4,.33,6.31,1v3.82c-2.41-.75-4.15-1.08-6.31-1.08Z"/><path class="cls-1" d="M449.64,348.73c-12.53,0-21.66-10.12-21.66-21.99v-.17c0-11.87,9.21-22.16,21.83-22.16s21.66,10.12,21.66,21.99v.17c0,11.87-9.21,22.16-21.83,22.16Zm17.43-22.16c0-10.21-7.63-18.34-17.43-18.34s-17.26,8.22-17.26,18.18v.17c0,10.21,7.64,18.34,17.43,18.34s17.26-8.22,17.26-18.18v-.17Z"/><path class="cls-1" d="M481.93,347.73v-60.58h4.07v60.58h-4.07Z"/><path class="cls-1" d="M499.44,294.37v-5.56h5.06v5.56h-5.06Zm.5,53.36v-42.33h4.07v42.33h-4.07Z"/><path class="cls-1" d="M536.12,348.73c-12.53,0-21.66-10.12-21.66-21.99v-.17c0-11.87,9.21-22.16,21.83-22.16s21.66,10.12,21.66,21.99v.17c0,11.87-9.21,22.16-21.83,22.16Zm17.43-22.16c0-10.21-7.63-18.34-17.43-18.34s-17.26,8.22-17.26,18.18v.17c0,10.21,7.64,18.34,17.43,18.34s17.26-8.22,17.26-18.18v-.17Z"/></g><g><path class="cls-1" d="M57.1,330.09c-1.44,3.62-3.46,6.82-6.06,9.59-2.6,2.77-5.73,4.97-9.38,6.6-3.65,1.63-7.69,2.45-12.12,2.45s-8.45-.8-12.08-2.41-6.74-3.78-9.34-6.52c-2.6-2.74-4.61-5.92-6.02-9.54-1.41-3.62-2.12-7.46-2.12-11.5s.72-7.87,2.16-11.5c1.44-3.62,3.46-6.82,6.06-9.59,2.6-2.77,5.73-4.97,9.38-6.6,3.65-1.63,7.69-2.45,12.12-2.45s8.45,.8,12.08,2.41c3.62,1.61,6.74,3.78,9.34,6.52,2.6,2.74,4.61,5.92,6.02,9.54,1.41,3.62,2.12,7.46,2.12,11.5s-.72,7.87-2.16,11.5Zm-6.35-20.71c-1.13-2.93-2.73-5.48-4.77-7.64-2.05-2.16-4.47-3.87-7.26-5.15-2.79-1.27-5.85-1.91-9.17-1.91s-6.38,.62-9.17,1.87c-2.79,1.25-5.19,2.95-7.18,5.1-1.99,2.16-3.56,4.69-4.69,7.59-1.13,2.91-1.7,6.02-1.7,9.34s.57,6.45,1.7,9.38c1.13,2.93,2.72,5.48,4.77,7.64,2.05,2.16,4.47,3.87,7.26,5.15,2.79,1.27,5.85,1.91,9.17,1.91s6.38-.62,9.17-1.87c2.79-1.25,5.19-2.95,7.18-5.1s3.55-4.69,4.69-7.59c1.13-2.9,1.7-6.02,1.7-9.34s-.57-6.45-1.7-9.38Z"/><path class="cls-1" d="M92.71,304.98v5.48h-13.53v37.27h-6.39v-37.27h-5.89v-5.56h5.89v-3.74c0-4.7,1.12-8.27,3.36-10.71,2.24-2.43,5.44-3.65,9.59-3.65,1.49,0,2.78,.08,3.86,.25s2.14,.44,3.2,.83v5.56c-1.16-.33-2.21-.59-3.15-.79-.94-.19-1.96-.29-3.07-.29-4.98,0-7.47,3.04-7.47,9.13v3.49h13.61Z"/><path class="cls-1" d="M121.51,304.98v5.48h-13.53v37.27h-6.39v-37.27h-5.89v-5.56h5.89v-3.74c0-4.7,1.12-8.27,3.36-10.71,2.24-2.43,5.44-3.65,9.59-3.65,1.49,0,2.78,.08,3.86,.25s2.14,.44,3.2,.83v5.56c-1.16-.33-2.21-.59-3.15-.79-.94-.19-1.96-.29-3.07-.29-4.98,0-7.47,3.04-7.47,9.13v3.49h13.61Z"/><path class="cls-1" d="M128.15,295.44v-7.05h7.3v7.05h-7.3Zm.42,52.29v-42.91h6.39v42.91h-6.39Z"/><path class="cls-1" d="M177.66,346.37c-2.74,1.57-6.13,2.36-10.17,2.36-3.15,0-6.07-.6-8.76-1.78-2.68-1.19-5.01-2.79-6.97-4.81-1.96-2.02-3.5-4.38-4.61-7.1-1.11-2.71-1.66-5.59-1.66-8.63s.55-5.93,1.66-8.67c1.11-2.74,2.64-5.13,4.61-7.18s4.29-3.67,6.97-4.86c2.68-1.19,5.6-1.79,8.76-1.79,2.05,0,3.9,.19,5.56,.58,1.66,.39,3.18,.93,4.56,1.62,1.38,.69,2.66,1.51,3.82,2.45,1.16,.94,2.24,1.94,3.24,2.99l-4.23,4.48c-1.72-1.77-3.58-3.29-5.6-4.57-2.02-1.27-4.5-1.91-7.43-1.91-2.16,0-4.18,.43-6.06,1.28-1.88,.86-3.51,2.04-4.9,3.56-1.38,1.52-2.46,3.28-3.24,5.3-.78,2.02-1.16,4.18-1.16,6.5s.4,4.5,1.2,6.54c.8,2.04,1.91,3.82,3.32,5.34,1.41,1.52,3.07,2.7,4.98,3.56,1.91,.86,4,1.28,6.27,1.28,2.77,0,5.21-.61,7.35-1.83,2.13-1.22,4.05-2.74,5.77-4.57l4.07,3.82c-2.16,2.45-4.61,4.45-7.35,6.03Z"/><path class="cls-1" d="M198.2,334.82c.88,1.8,2.02,3.32,3.4,4.56,1.38,1.25,2.93,2.19,4.65,2.82,1.71,.64,3.51,.95,5.39,.95,2.99,0,5.55-.55,7.68-1.66,2.13-1.11,4.08-2.57,5.85-4.4l3.98,3.57c-2.16,2.44-4.62,4.39-7.39,5.85-2.77,1.46-6.2,2.2-10.29,2.2-2.93,0-5.7-.54-8.3-1.62-2.6-1.08-4.88-2.6-6.83-4.57-1.95-1.96-3.5-4.33-4.65-7.1-1.15-2.77-1.72-5.81-1.72-9.13,0-3.1,.51-6.02,1.54-8.76,1.02-2.74,2.45-5.12,4.27-7.14,1.83-2.02,4-3.61,6.52-4.77,2.52-1.16,5.27-1.74,8.26-1.74,3.15,0,5.98,.6,8.47,1.79,2.49,1.19,4.59,2.81,6.31,4.86,1.71,2.05,3.02,4.45,3.9,7.22,.88,2.77,1.33,5.73,1.33,8.88v.91c0,.33-.03,.69-.08,1.08h-33.95c.22,2.32,.77,4.39,1.66,6.18Zm25.81-10.92c-.17-1.94-.56-3.79-1.2-5.56-.63-1.77-1.51-3.32-2.64-4.65-1.13-1.33-2.5-2.39-4.12-3.2-1.62-.8-3.51-1.2-5.65-1.2-1.87,0-3.6,.37-5.2,1.12-1.6,.75-3,1.77-4.21,3.07-1.21,1.3-2.2,2.84-2.97,4.61-.77,1.77-1.27,3.71-1.48,5.81h27.47Z"/></g></g><path class="cls-1" d="M212.03,18.11c-40.73,0-73.76,33.01-73.77,73.74,0,40.73,33.01,73.76,73.74,73.77,40.73,0,73.76-33.01,73.77-73.74v-.02c-.05-40.71-33.04-73.69-73.74-73.74Zm0,140.98c-37.13,0-67.24-30.09-67.25-67.23,0-37.13,30.09-67.24,67.23-67.25s67.24,30.09,67.25,67.23h0c-.04,37.13-30.11,67.21-67.23,67.25Z"/><path class="cls-1" d="M342.31,0h-63.05V32.06c-33.06-37.1-89.93-40.37-127.03-7.31-37.1,33.06-40.37,89.93-7.31,127.03,33.06,37.1,89.93,40.37,127.03,7.31,19.18-17.09,30.14-41.57,30.11-67.26h0V22.79h40.23c37.13,0,67.24,30.1,67.24,67.24s-30.1,67.24-67.24,67.24h-63.01v78.52l6.52,6.76v-78.75h56.51c40.73,.51,74.16-32.1,74.67-72.83,.51-40.73-32.1-74.16-72.83-74.67-.61,0-1.23,0-1.84,0h-46.77V91.85h0c.06,46.16-37.31,83.63-83.47,83.7-46.16,.06-83.63-37.31-83.7-83.47S165.69,8.45,211.85,8.38c30.97-.04,59.42,17.04,73.94,44.39V6.52h56.54c46.13-.54,83.96,36.41,84.5,82.54,.54,46.13-36.41,83.96-82.54,84.5-.65,0-1.31,0-1.96,0h-46.76v79.15l6.52,6.76v-79.39h40.23c49.73,0,90.04-40.31,90.04-90.04C432.35,40.31,392.04,0,342.31,0h0Z"/></g></g></svg>