<svg xmlns="http://www.w3.org/2000/svg" viewBox="0 0 270.03 225.74"><defs><style>.cls-1{fill:#f4b183;}</style></defs><g id="Layer_2" data-name="Layer 2"><g id="Layer_1-2" data-name="Layer 1"><path class="cls-1" d="M78.34,15.75A64.17,64.17,0,1,0,142.5,79.91,64.24,64.24,0,0,0,78.34,15.75Zm0,122.66a58.5,58.5,0,1,1,58.49-58.5A58.56,58.56,0,0,1,78.34,138.41Z"/><path class="cls-1" d="M191.7,0H136.83V27.89a78.29,78.29,0,1,0,19.83,52h0V19.84h35a58.5,58.5,0,0,1,0,117H136.85v68.32l5.67,5.88V142.5H191.7a64.17,64.17,0,0,0,0-128.33H151V79.91h0a72.72,72.72,0,1,1-8.49-34V5.67h49.2a72.67,72.67,0,0,1,0,145.33H151v68.86l5.67,5.88V156.67h35A78.34,78.34,0,0,0,191.7,0Z"/></g></g></svg>